<svg width="32.000000" height="32.000000" viewBox="0 0 32 32" fill="none" xmlns="http://www.w3.org/2000/svg" xmlns:xlink="http://www.w3.org/1999/xlink">
	<desc>
			Created with Pixso.
	</desc>
	<defs/>
	<g opacity="0.500647">
		<circle id="Oval" cx="16.000000" cy="16.000000" r="16.000000" fill="#10141E" fill-opacity="1.000000"/>
		<circle id="Oval" cx="16.000000" cy="16.000000" r="16.000000" stroke="#979797" stroke-opacity="0" stroke-width="0.000000"/>
	</g>
	<path id="Path" d="M20.6094 9C20.7491 9 20.8828 9.02783 21.0104 9.0835C21.2109 9.16357 21.3704 9.29004 21.489 9.46289C21.6074 9.63525 21.6667 9.82666 21.6667 10.0361L21.6667 21.9639C21.6667 22.1733 21.6074 22.3647 21.489 22.5371C21.3704 22.71 21.2109 22.8364 21.0104 22.9165C20.895 22.9663 20.7613 22.9907 20.6094 22.9907C20.3177 22.9907 20.0656 22.8921 19.8528 22.6948L15.8333 18.7715L11.8138 22.6948C11.595 22.8984 11.3429 23 11.0573 23C10.9175 23 10.7839 22.9722 10.6562 22.9165C10.4557 22.8364 10.2962 22.71 10.1777 22.5371C10.0593 22.3647 10 22.1733 10 21.9639L10 10.0361C10 9.82666 10.0593 9.63525 10.1777 9.46289C10.2962 9.29004 10.4557 9.16357 10.6562 9.0835C10.7839 9.02783 10.9175 9 11.0573 9L20.6094 9Z" fill="#5A698F" fill-opacity="0" fill-rule="nonzero"/>
	<path id="Path" d="M21.0104 9.0835C20.8828 9.02783 20.7491 9 20.6094 9L11.0573 9Q10.9471 9 10.8419 9.02295L10.8419 9.02295Q10.747 9.04395 10.6562 9.0835Q10.4786 9.1543 10.3439 9.27393Q10.2505 9.35645 10.1777 9.46289Q10.0895 9.59131 10.0451 9.7334Q10 9.87793 10 10.0361L10 21.9639C10 22.1733 10.0593 22.3647 10.1777 22.5371C10.2962 22.71 10.4557 22.8364 10.6562 22.9165Q10.747 22.9561 10.8419 22.9771Q10.9471 23 11.0573 23Q11.2354 23 11.3962 22.9473Q11.6221 22.873 11.8138 22.6948L15.8333 18.7715L19.8528 22.6948C20.0656 22.8921 20.3177 22.9907 20.6094 22.9907C20.7613 22.9907 20.895 22.9663 21.0104 22.9165C21.2109 22.8364 21.3704 22.71 21.489 22.5371C21.6074 22.3647 21.6667 22.1733 21.6667 21.9639L21.6667 10.0361Q21.6667 9.87793 21.6216 9.7334Q21.5771 9.59131 21.489 9.46289C21.3704 9.29004 21.2109 9.16357 21.0104 9.0835ZM20.1667 20.9048L20.1667 10.5L11.5 10.5L11.5 20.9048L15.8333 16.6753L20.1667 20.9048Z" fill="#FFFFFF" fill-opacity="1.000000" fill-rule="evenodd"/>
</svg>
