<svg width="12.000000" height="12.000000" viewBox="0 0 12 12" fill="none" xmlns="http://www.w3.org/2000/svg" xmlns:xlink="http://www.w3.org/1999/xlink">
	<desc>
			Created with Pixso.
	</desc>
	<defs/>
	<g opacity="0.750000">
		<path id="Shape" d="M1.82666 0L10.1733 0C10.6578 0 11.1224 0.192383 11.465 0.535156C11.8076 0.877441 12 1.34229 12 1.82666L12 10.1733C12 10.6577 11.8076 11.1226 11.465 11.4648C11.1224 11.8076 10.6578 12 10.1733 12L1.82666 12C0.81781 12 0 11.1821 0 10.1733L0 1.82666C0 0.817871 0.81781 0 1.82666 0ZM2.40002 5.3999L1.20001 5.3999L1.20001 4.2002L2.40002 4.2002L2.40002 5.3999ZM1.20001 6.6001L2.40002 6.6001L2.40002 7.7998L1.20001 7.7998L1.20001 6.6001ZM10.8 5.3999L9.59998 5.3999L9.59998 4.2002L10.8 4.2002L10.8 5.3999ZM9.59998 6.6001L10.8 6.6001L10.8 7.7998L9.59998 7.7998L9.59998 6.6001ZM10.8 1.64404L10.8 2.3999L9.59998 2.3999L9.59998 1.2002L10.356 1.2002C10.4738 1.2002 10.5867 1.24658 10.67 1.33008C10.7532 1.41309 10.8 1.52637 10.8 1.64404ZM1.64398 1.2002L2.40002 1.2002L2.40002 2.3999L1.20001 2.3999L1.20001 1.64404C1.20001 1.52637 1.24677 1.41309 1.33002 1.33008C1.41333 1.24658 1.52625 1.2002 1.64398 1.2002L1.64398 1.2002ZM1.20001 10.356L1.20001 9.6001L2.40002 9.6001L2.40002 10.7998L1.64398 10.7998C1.52625 10.7998 1.41333 10.7534 1.33002 10.6699C1.24677 10.5869 1.20001 10.4736 1.20001 10.356L1.20001 10.356ZM10.8 10.356C10.8 10.6011 10.6012 10.7998 10.356 10.7998L9.59998 10.7998L9.59998 9.6001L10.8 9.6001L10.8 10.356Z" clip-rule="evenodd" fill="#FFFFFF" fill-opacity="1.000000" fill-rule="evenodd"/>
	</g>
</svg>
