<svg width="18.005798" height="18.005859" viewBox="0 0 18.0058 18.0059" fill="none" xmlns="http://www.w3.org/2000/svg" xmlns:xlink="http://www.w3.org/1999/xlink">
	<desc>
			Created with Pixso.
	</desc>
	<defs/>
	<path id="Shape" d="M17.71 16.29L14.31 12.8999C15.407 11.5024 16.0022 9.77686 16 8C16 3.58154 12.4183 0 8 0C3.58173 0 0 3.58154 0 8C0 12.4185 3.58173 16 8 16C9.77664 16.0024 11.5024 15.4072 12.9 14.3101L16.29 17.71C16.4778 17.8994 16.7334 18.0059 17 18.0059C17.2666 18.0059 17.5222 17.8994 17.71 17.71C17.8993 17.5225 18.0058 17.2666 18.0058 17C18.0058 16.7334 17.8993 16.4775 17.71 16.29ZM8 2C4.68628 2 2 4.68652 2 8C2 11.3135 4.68628 14 8 14C11.3137 14 14 11.3135 14 8C14 4.68652 11.3137 2 8 2Z" clip-rule="evenodd" fill="#FFFFFF" fill-opacity="1.000000" fill-rule="evenodd"/>
</svg>
